Coordinates
version=1
nRows=14
nColumns=40
inDegrees=yes

Units are S.I. units (second, meters, Newtons, ...)
Angles are in degrees.

endheader
time	pelvis_tilt	pelvis_list	pelvis_rotation	pelvis_tx	pelvis_ty	pelvis_tz	hip_flexion_r	hip_adduction_r	hip_rotation_r	knee_angle_r	knee_angle_r_beta	ankle_angle_r	subtalar_angle_r	mtp_angle_r	hip_flexion_l	hip_adduction_l	hip_rotation_l	knee_angle_l	knee_angle_l_beta	ankle_angle_l	subtalar_angle_l	mtp_angle_l	lumbar_extension	lumbar_bending	lumbar_rotation	arm_flex_r	arm_add_r	arm_rot_r	elbow_flex_r	pro_sup_r	wrist_flex_r	wrist_dev_r	arm_flex_l	arm_add_l	arm_rot_l	elbow_flex_l	pro_sup_l	wrist_flex_l	wrist_dev_l
     21.65478571	     -5.01735897	     -5.70036703	    -11.14702173	      0.83715496	      0.92882985	      0.40311012	     24.68978775	     -0.49263963	    -10.07771603	     19.88600792	     19.88600792	      4.41318082	     -0.70319829	      2.22308081	      5.41365403	     -4.27044630	    -12.78945595	     18.66424098	     18.66424098	     18.98488935	    -15.97987525	      5.11862044	    -11.22205997	      9.09150293	      2.04572017	    -14.80658851	    -11.66884795	    -16.36446387	     27.04648071	     46.50840818	      0.00000000	      0.00000000	     27.75603809	    -25.80077890	    -11.51342410	     85.75831199	     48.15513796	      0.00000000	      0.00000000
     21.67457143	     -4.84062690	     -5.48203315	    -11.61114800	      0.83777389	      0.92774904	      0.40608821	     24.35282389	     -0.40589836	    -10.48749282	     18.36426191	     18.36426191	      4.38079584	      1.31485382	      3.60888403	      4.30516954	     -4.05914738	    -13.53871236	     17.91187962	     17.91187962	     18.62525842	    -15.73135402	      3.08329059	    -11.23632384	      8.89301735	      1.94925841	    -16.06564016	    -11.64437719	    -16.58275236	     28.57088478	     46.44108027	      0.00000000	      0.00000000	     28.72333433	    -25.87068270	    -12.03474102	     86.88103187	     48.23661355	      0.00000000	      0.00000000
     21.69435714	     -4.78743927	     -5.17768891	    -12.06837289	      0.83860597	      0.92628490	      0.40924417	     24.23458914	     -0.37311824	    -10.56216449	     17.51154483	     17.51154483	      4.17882659	      2.30612156	      3.75123228	      3.45813506	     -3.77215795	    -14.13571923	     17.43379643	     17.43379643	     18.98805630	    -15.43924304	      2.83442758	    -11.04423922	      8.65746743	      1.87721329	    -16.55295535	    -11.67092715	    -16.63227146	     28.58486227	     46.43927098	      0.00000000	      0.00000000	     29.64924824	    -26.11568345	    -12.31884220	     87.57016984	     48.27546375	      0.00000000	      0.00000000
     21.71414286	     -4.79323521	     -5.03340621	    -12.41426227	      0.83979015	      0.92455979	      0.41254822	     24.25705942	     -0.23130955	    -10.56218150	     17.42540559	     17.42540559	      4.18764280	      2.55265625	      3.71086564	      2.79630683	     -3.68535019	    -14.41189989	     17.28431275	     17.28431275	     19.47247320	    -15.50488787	      2.64223642	    -10.67285901	      8.64636869	      1.63329630	    -16.78566186	    -11.74359968	    -16.67345974	     28.58912807	     46.44014937	      0.00000000	      0.00000000	     30.12133696	    -26.19947272	    -12.42123227	     87.86339699	     48.29087349	      0.00000000	      0.00000000
     21.73392857	     -4.36298011	     -4.76610924	    -12.76653708	      0.84175444	      0.92352221	      0.41587293	     23.69203598	     -0.46330312	    -11.06519375	     17.54178797	     17.54178797	      3.81945731	      3.63372764	      1.17997645	      1.13789703	     -3.33322374	    -15.52354619	     16.13086810	     16.13086810	     19.27137619	    -14.29246378	      0.76181271	    -10.96188525	      8.45452056	      1.66087246	    -17.70791917	    -11.74145667	    -17.38355022	     31.21780100	     46.36010459	      0.00000000	      0.00000000	     30.40305012	    -25.88575358	    -13.86581124	     90.06350478	     48.43551818	      0.00000000	      0.00000000
     21.75371429	     -4.21085274	     -4.55967347	    -13.03766736	      0.84368867	      0.92215737	      0.41942461	     23.60512983	     -0.50348978	    -10.78823109	     18.35315898	     18.35315898	      4.12642060	      3.15403010	      0.48234769	      0.07790636	     -3.09004167	    -15.90012444	     15.56049876	     15.56049876	     19.59243676	    -14.00396928	      0.60535960	    -10.80096921	      8.37624147	      1.66660799	    -17.66143907	    -11.82712009	    -17.44597988	     31.49698401	     46.35145837	      0.00000000	      0.00000000	     30.88716595	    -25.81450815	    -14.04750864	     90.56350253	     48.46087601	      0.00000000	      0.00000000
     21.77350000	     -4.09678267	     -4.42992603	    -13.24571957	      0.84589927	      0.92079608	      0.42320327	     23.42960089	     -0.39775728	    -10.15639369	     19.12217612	     19.12217612	      3.67478793	      1.79766721	     -2.47853526	     -0.95241176	     -2.97753501	    -16.33620368	     15.03300884	     15.03300884	     19.78621650	    -13.55205480	      0.02082287	    -10.64189494	      8.42133531	      1.44788955	    -17.83319722	    -11.90109590	    -17.87615763	     33.28656335	     46.29157567	      0.00000000	      0.00000000	     30.77148069	    -25.67766150	    -14.98114451	     91.74196744	     48.54773547	      0.00000000	      0.00000000
     21.79328571	     -3.97229801	     -4.35978948	    -13.35138016	      0.84823910	      0.91970743	      0.42705665	     23.32568311	     -0.34211354	     -9.73137396	     20.33573384	     20.33573384	      4.23893648	      0.94015733	     -3.03650582	     -1.90433523	     -2.93665198	    -16.49565545	     14.68886544	     14.68886544	     20.05532833	    -13.36571404	      0.03286619	    -10.48210428	      8.49943458	      1.40781825	    -17.47102830	    -12.06702919	    -17.92431506	     33.57225170	     46.28468459	      0.00000000	      0.00000000	     31.02541608	    -25.58002599	    -15.06836998	     91.99820724	     48.56018320	      0.00000000	      0.00000000
     21.81307143	     -3.91701734	     -4.29401699	    -13.44794587	      0.85064750	      0.91880099	      0.43128032	     23.22689279	     -0.08575820	     -8.68466831	     21.42948350	     21.42948350	      4.44754178	     -1.10710966	     -4.03723905	     -2.75401723	     -2.97448116	    -16.78475558	     14.43121334	     14.43121334	     20.38064563	    -12.94066610	      0.25167569	    -10.30599031	      8.57921982	      1.15070133	    -17.16526002	    -12.17415422	    -18.21519422	     34.94041444	     46.23981084	      0.00000000	      0.00000000	     30.74779399	    -25.50256827	    -15.83935643	     92.90961794	     48.62686543	      0.00000000	      0.00000000
     21.83285714	     -3.83929521	     -4.30279312	    -13.42418908	      0.85315016	      0.91824557	      0.43553143	     23.03531649	      0.08997142	     -8.24425862	     22.53490998	     22.53490998	      5.02310267	     -2.06621926	     -4.36600938	     -3.53513443	     -3.12102719	    -16.83641404	     14.34553127	     14.34553127	     20.50336210	    -12.80922444	      0.34527093	    -10.15112246	      8.70690000	      1.08204272	    -16.62559452	    -12.35738497	    -18.27329564	     35.34792491	     46.22968824	      0.00000000	      0.00000000	     30.76614152	    -25.35046121	    -15.89134621	     93.04438573	     48.63301775	      0.00000000	      0.00000000
     21.85264286	     -3.85452549	     -4.36882158	    -13.35608352	      0.85555087	      0.91799542	      0.44013931	     22.80611895	      0.54245434	     -7.23340027	     23.35462647	     23.35462647	      5.45683631	     -4.02176742	     -4.15278770	     -4.09635738	     -3.45780997	    -17.00816029	     14.52366182	     14.52366182	     20.70850153	    -12.46681166	      0.67330730	     -9.95736890	      8.86305085	      0.80036733	    -16.11689088	    -12.48672321	    -18.48450339	     36.52891984	     46.19265624	      0.00000000	      0.00000000	     30.39050338	    -25.28413819	    -16.40163050	     93.54779942	     48.67347010	      0.00000000	      0.00000000
     21.87242857	     -3.81830668	     -4.45020721	    -13.19097037	      0.85795833	      0.91819586	      0.44471859	     22.38168898	      0.79379584	     -7.12617584	     23.94796019	     23.94796019	      5.95063487	     -4.54408760	     -4.26376757	     -4.61069626	     -3.82970342	    -16.96881232	     14.83205696	     14.83205696	     20.60688473	    -12.44089418	      0.77309043	     -9.85507734	      8.99369722	      0.72711928	    -15.42028559	    -12.66438226	    -18.52193972	     36.97398465	     46.18131017	      0.00000000	      0.00000000	     30.29974355	    -25.01045376	    -16.34189742	     93.57059434	     48.66949391	      0.00000000	      0.00000000
     21.89221429	     -3.92109025	     -4.59906921	    -12.97264791	      0.86012324	      0.91855610	      0.44964270	     21.99061874	      1.33210158	     -6.47769476	     24.27486411	     24.27486411	      6.36677357	     -5.94624722	     -3.56364292	     -4.70879493	     -4.48584700	    -17.13467144	     15.69360408	     15.69360408	     20.67303572	    -12.11385907	      0.93805366	     -9.62007314	      9.14473120	      0.36588148	    -14.87665343	    -12.79024447	    -18.67745103	     38.23982395	     46.13913018	      0.00000000	      0.00000000	     29.87098958	    -24.97693448	    -16.74712496	     93.70303498	     48.69538676	      0.00000000	      0.00000000
     21.91200000	     -3.88152060	     -4.71209515	    -12.71138281	      0.86234193	      0.91945323	      0.45452896	     21.32320603	      1.63493116	     -6.52611245	     24.36853571	     24.36853571	      6.79102607	     -6.14943838	     -3.43830604	     -4.96209828	     -5.03832962	    -17.07701290	     16.45470154	     16.45470154	     20.39744466	    -12.11653838	      1.00659123	     -9.56868991	      9.18115632	      0.28759043	    -14.23159190	    -12.95893565	    -18.69712644	     38.81231913	     46.12086975	      0.00000000	      0.00000000	     29.67236204	    -24.64998802	    -16.69725089	     93.65975189	     48.68998985	      0.00000000	      0.00000000
